<?xml version="1.0" encoding="utf-8"?>
<!-- Generator: Adobe Illustrator 18.0.0, SVG Export Plug-In . SVG Version: 6.00 Build 0)  -->
<!DOCTYPE svg PUBLIC "-//W3C//DTD SVG 1.1//EN" "http://www.w3.org/Graphics/SVG/1.1/DTD/svg11.dtd">
<svg version="1.1" xmlns="http://www.w3.org/2000/svg" xmlns:xlink="http://www.w3.org/1999/xlink" x="0px" y="0px"
	 viewBox="0 0 500 500" style="enable-background:new 0 0 500 500;" xml:space="preserve">
<style type="text/css">
	.st0{fill:#E5EBF0;}
	.st1{fill:#30537D;}
	.st2{fill:#527EA7;}
	.st3{fill:#171F2C;}
	.st4{fill:#BED8E8;}
	.st5{fill:#F4E96B;}
	.st6{fill:#8FA2AE;}
	.st7{display:none;}
	.st8{display:inline;fill:#E5EBF0;}
	.st9{opacity:0.1;fill:#FFFFFF;}
	.st10{clip-path:url(#SVGID_2_);}
	.st11{clip-path:url(#SVGID_2_);fill:url(#SVGID_3_);}
	.st12{display:none;clip-path:url(#SVGID_2_);fill:#8FA2AE;}
	.st13{fill:#FFFFFF;}
	.st14{clip-path:url(#SVGID_2_);fill:url(#SVGID_4_);}
	.st15{clip-path:url(#SVGID_6_);fill:#527EA7;}
	.st16{clip-path:url(#SVGID_6_);}
	.st17{opacity:0.2;fill:url(#SVGID_7_);}
	.st18{fill:#FFFFFF;stroke:#F4E96B;stroke-width:2;stroke-miterlimit:10;}
	.st19{opacity:5.000000e-02;}
	.st20{opacity:0.5;fill:#E5EBF0;}
	.st21{opacity:0.3;fill:#8FA2AE;}
	.st22{fill:none;stroke:#8FA2AE;stroke-width:3;stroke-miterlimit:10;}
	.st23{opacity:0.8;fill:#8FA2AE;}
	.st24{opacity:0.6;fill:#8FA2AE;}
	.st25{opacity:0.4;fill:#8FA2AE;}
	.st26{opacity:0.2;fill:#8FA2AE;}
</style>
<g id="colour_palette">
</g>
<g id="background_squares" class="st7">
	<rect id="product" y="-2.3" class="st8" width="500" height="500"/>
</g>
<g id="tablet">
	<path class="st2" d="M423,373.9H54.5c-2.2,0-4-1.8-4-4V95.6c0-2.2,1.8-4,4-4H423c2.2,0,4,1.8,4,4v274.4
		C427,372.1,425.2,373.9,423,373.9z"/>
	<rect x="74" y="115.1" class="st1" width="329.4" height="235.3"/>
	<polygon class="st9" points="74,125 403.4,315.2 403.4,114 74,114 	"/>
</g>
<g id="phone">
	<g>
		<path class="st2" d="M457.5,424.4h-86.1c-2.2,0-4-1.8-4-4V240.2c0-2.2,1.8-4,4-4h86.1c2.2,0,4,1.8,4,4v180.2
			C461.5,422.7,459.7,424.4,457.5,424.4z"/>
		<rect x="376.8" y="259.7" class="st1" width="75.3" height="141.2"/>
		<polygon class="st9" points="376.8,296.7 452.1,340.2 452.1,259.7 376.8,259.7 		"/>
	</g>
</g>
<g id="web">
	<defs>
		<circle id="SVGID_1_" cx="900.5" cy="250" r="240"/>
	</defs>
	<clipPath id="SVGID_2_">
		<use xlink:href="#SVGID_1_"  style="overflow:visible;"/>
	</clipPath>
</g>
<g id="illustration">
</g>
</svg>
