<?xml version="1.0" encoding="utf-8"?>
<!-- Generator: Adobe Illustrator 18.0.0, SVG Export Plug-In . SVG Version: 6.00 Build 0)  -->
<!DOCTYPE svg PUBLIC "-//W3C//DTD SVG 1.1//EN" "http://www.w3.org/Graphics/SVG/1.1/DTD/svg11.dtd">
<svg version="1.1" xmlns="http://www.w3.org/2000/svg" xmlns:xlink="http://www.w3.org/1999/xlink" x="0px" y="0px"
	 viewBox="0 0 500 500" style="enable-background:new 0 0 500 500;" xml:space="preserve">
<style type="text/css">
	.st0{fill:#E5EBF0;}
	.st1{fill:#30537D;}
	.st2{fill:#527EA7;}
	.st3{fill:#171F2C;}
	.st4{fill:#BED8E8;}
	.st5{fill:#F4E96B;}
	.st6{fill:#8FA2AE;}
	.st7{display:none;}
	.st8{display:inline;fill:#E5EBF0;}
	.st9{opacity:0.1;fill:#FFFFFF;}
	.st10{clip-path:url(#SVGID_2_);}
	.st11{clip-path:url(#SVGID_2_);fill:url(#SVGID_3_);}
	.st12{display:none;clip-path:url(#SVGID_2_);fill:#8FA2AE;}
	.st13{fill:#FFFFFF;}
	.st14{clip-path:url(#SVGID_2_);fill:url(#SVGID_4_);}
	.st15{clip-path:url(#SVGID_6_);fill:#527EA7;}
	.st16{clip-path:url(#SVGID_6_);}
	.st17{opacity:0.2;fill:url(#SVGID_7_);}
	.st18{fill:#FFFFFF;stroke:#F4E96B;stroke-width:2;stroke-miterlimit:10;}
	.st19{opacity:5.000000e-02;}
	.st20{opacity:0.5;fill:#E5EBF0;}
	.st21{opacity:0.3;fill:#8FA2AE;}
	.st22{fill:none;stroke:#8FA2AE;stroke-width:3;stroke-miterlimit:10;}
	.st23{opacity:0.8;fill:#8FA2AE;}
	.st24{opacity:0.6;fill:#8FA2AE;}
	.st25{opacity:0.4;fill:#8FA2AE;}
	.st26{opacity:0.2;fill:#8FA2AE;}
</style>
<g id="colour_palette">
</g>
<g id="background_squares" class="st7">
	<rect id="web_1_" y="-2.3" class="st8" width="500" height="500"/>
</g>
<g id="tablet">
</g>
<g id="phone">
</g>
<g id="web">
	<defs>
		<circle id="SVGID_1_" cx="250.5" cy="250" r="240"/>
	</defs>
	<clipPath id="SVGID_2_">
		<use xlink:href="#SVGID_1_"  style="overflow:visible;"/>
	</clipPath>
	<g id="background" class="st10">
		<g>
			<g>
				<rect class="st2" width="500" height="500"/>
			</g>
		</g>
	</g>
	<linearGradient id="SVGID_3_" gradientUnits="userSpaceOnUse" x1="336.0786" y1="407.9981" x2="-163.3538" y2="-91.4342">
		<stop  offset="0" style="stop-color:#FFFFFF"/>
		<stop  offset="0.4839" style="stop-color:#959393"/>
		<stop  offset="1" style="stop-color:#000000"/>
	</linearGradient>
	<polygon class="st11" points="489.3,180.2 392.1,83.1 392.1,82.9 391.1,82 116.9,82 116,83.9 116,568 116,568 116,569 117,569 
		117,570 118,570 118,571 119,571 119,571 120,571 120,572 120,572 120,573 121,573 121,574 122,574 122,575 123,575 123,575 
		124,575 124,576 124,576 124,577 125,577 125,578 126,578 126,578 127,578 127,579 127,579 127,580 128,580 128,581 129,581 
		129,582 130,582 130,582 131,582 131,583 131,583 131,584 132,584 132,585 133,585 133,586 134,586 134,586 134,586 134,587 
		135,587 135,588 136,588 136,589 137,589 137,589 138,589 138,590 138,590 138,591 139,591 139,592 140,592 140,593 141,593 
		141,593 141,593 141,594 142,594 142,595 143,595 143,596 144,596 144,596 145,596 145,597 145,597 145,598 146,598 146,599 
		147,599 147,600 148,600 148,600 149,600 149,601 149,601 149,602 150,602 150,603 151,603 151,603 152,603 152,604 152,604 
		152,605 153,605 153,606 154,606 154,607 155,607 155,607 156,607 156,608 156,608 156,609 157,609 157,610 158,610 158,611 
		159,611 159,611 159,611 159,612 160,612 160,613 161,613 161,614 162,614 162,614 163,614 163,615 163,615 163,616 164,616 
		164,617 165,617 165,618 166,618 166,618 166,618 166,619 167,619 167,620 168,620 168,621 169,621 169,621 170,621 170,622 
		170,622 170,623 171,623 171,624 172,624 172,625 173,625 173,625 174,625 174,626 174,626 174,627 175,627 175,628 176,628 
		176,628 177,628 177,629 177,629 177,630 178,630 178,631 179,631 179,632 180,632 180,632 181,632 181,633 181,633 181,634 
		182,634 182,635 183,635 183,636 184,636 184,636 184,636 184,637 185,637 185,638 186,638 186,639 187,639 187,639 188,639 
		188,640 188,640 188,641 189,641 189,642 190,642 190,643 191,643 191,643 191,643 191,644 192,644 192,645 193,645 193,646 
		194,646 194,646 195,646 195,647 195,647 195,648 196,648 196,649 197,649 197,650 198,650 198,650 199,650 199,651 199,651 
		199,652 200,652 200,653 201,653 201,653 202,653 202,654 202,654 202,655 203,655 203,656 204,656 204,657 205,657 205,657 
		206,657 206,658 206,658 206,659 207,659 207,660 208,660 208,661 209,661 209,661 209,661 209,662 210,662 210,663 211,663 
		211,664 212,664 212,664 213,664 213,665 213,665 213,666 490,666 490,181.2 489.3,180.2 	"/>
	<path class="st12" d="M394.3,72.5h-273c-1.1,0-2,0.9-2,2v164.2v166.2v153.5h277V404.9V238.7V74.5C396.3,73.4,395.4,72.5,394.3,72.5
		z"/>
	<g id="browser_2_" class="st10">
		<path id="window_frame_4_" class="st13" d="M392.3,567.4h-277V83.5c0-1.1,0.9-2,2-2h273c1.1,0,2,0.9,2,2V567.4z"/>
		<rect id="section_3_thumbnail_1_4_" x="129.2" y="434.7" class="st0" width="69.2" height="41.5"/>
		<rect id="section_3_thumbnail_text_1_10_" x="129.2" y="483.1" class="st0" width="69.2" height="6.9"/>
		<rect id="section_3_thumbnail_text_2_10_" x="129.2" y="497" class="st0" width="69.2" height="6.9"/>
		<rect id="section_3_thumbnail_text_1_6_" x="219.2" y="483.1" class="st0" width="69.2" height="6.9"/>
		<rect id="section_3_thumbnail_text_2_6_" x="219.2" y="497" class="st0" width="69.2" height="6.9"/>
		<rect id="section_3_thumbnail_text_1_4_" x="309.2" y="483.1" class="st0" width="69.2" height="6.9"/>
		<rect id="section_3_thumbnail_text_2_4_" x="309.2" y="497" class="st0" width="69.2" height="6.9"/>
		<rect id="section_3_thumbnail_2_2_" x="219.2" y="434.7" class="st0" width="69.2" height="41.5"/>
		<rect id="section_3_thumbnail_3_2_" x="309.2" y="434.7" class="st0" width="69.2" height="41.5"/>
		<rect id="middle_section_4_" x="115.4" y="247.7" class="st6" width="277" height="166.2"/>
		<path id="mountain_1_4_" class="st2" d="M129.2,413.9l45.7-79.5c2.8-4.8,9.7-4.8,12.4,0l45.7,79.5H129.2z"/>
		<path id="mountain_2_4_" class="st2" d="M187.6,413.9l91.4-132.5c5.5-8,19.3-8,24.8,0l91.4,132.5H187.6z"/>
		<rect id="hero_image_8_" x="184.6" y="317" class="st5" width="138.5" height="13.8"/>
		<rect id="left_header_link_4_" x="125.8" y="109.2" class="st2" width="69.2" height="6.9"/>
		<rect id="hero_text_1_4_" x="198.5" y="192.3" class="st0" width="55.4" height="6.9"/>
		<rect id="hero_text_2_4_" x="260.8" y="192.3" class="st0" width="13.8" height="6.9"/>
		<rect id="hero_text_3_4_" x="281.5" y="192.3" class="st0" width="27.7" height="6.9"/>
		<rect id="hero_image_6_" x="198.5" y="157.7" class="st2" width="110.8" height="27.7"/>
		<rect id="right_header_link_1_2_" x="285" y="109.2" class="st0" width="27.7" height="6.9"/>
		<rect id="right_header_link_2_2_" x="319.6" y="109.2" class="st0" width="27.7" height="6.9"/>
		<rect id="right_login_link_4_" x="354.2" y="109.2" class="st5" width="27.7" height="6.9"/>
		<circle id="minimize_2_" class="st0" cx="350.8" cy="91.9" r="3.5"/>
		<circle id="maximize_2_" class="st0" cx="364.6" cy="91.9" r="3.5"/>
		<circle id="close_2_" class="st0" cx="378.5" cy="91.9" r="3.5"/>
	</g>
	<linearGradient id="SVGID_4_" gradientUnits="userSpaceOnUse" x1="231.0211" y1="356.0075" x2="64.7301" y2="348.8835">
		<stop  offset="0" style="stop-color:#FFFFFF"/>
		<stop  offset="1" style="stop-color:#000000"/>
	</linearGradient>
	<polygon class="st14" points="237.4,243 235,240.9 234.2,240.6 226.4,233.8 225.6,233.6 217.8,226.8 217.1,226.5 181.4,197.6 
		73.3,197.6 71.7,198.8 71.7,462.5 72.5,462.5 72.5,463.3 73.3,463.3 73.3,464.1 74.1,464.1 74.1,464.8 75.6,464.8 75.6,465.6 
		76.4,465.6 76.4,466.4 77.2,466.4 77.2,467.2 78,467.2 78,468 78.7,468 78.7,468.7 79.5,468.7 79.5,469.5 81.1,469.5 81.1,470.3 
		81.9,470.3 81.9,471.1 82.7,471.1 82.7,471.9 84.2,471.9 84.2,472.7 85,472.7 85,473.4 85.8,473.4 85.8,474.2 86.6,474.2 86.6,475 
		87.3,475 87.3,475.8 88.1,475.8 88.1,476.6 89.7,476.6 89.7,477.3 90.5,477.3 90.5,478.1 91.3,478.1 91.3,478.9 92.8,478.9 
		92.8,479.7 93.6,479.7 93.6,480.5 94.4,480.5 94.4,481.2 95.2,481.2 95.2,482 95.9,482 95.9,482.8 97.5,482.8 97.5,483.6 
		98.3,483.6 98.3,484.4 99.1,484.4 99.1,485.2 99.8,485.2 99.8,485.9 100.6,485.9 100.6,486.7 102.2,486.7 102.2,487.5 103,487.5 
		103,488.3 103.8,488.3 103.8,489.1 104.5,489.1 104.5,489.8 106.1,489.8 106.1,490.6 106.9,490.6 106.9,491.4 107.7,491.4 
		107.7,492.2 108.4,492.2 108.4,493 109.2,493 109.2,493.8 110.8,493.8 110.8,494.5 111.6,494.5 111.6,495.3 112.3,495.3 
		112.3,496.1 113.1,496.1 113.1,496.9 114.7,496.9 114.7,497.7 115.5,497.7 115.5,498.4 116.3,498.4 116.3,499.2 117,499.2 117,500 
		117.8,500 117.8,500.8 119.4,500.8 119.4,501.6 120.2,501.6 120.2,502.3 120.9,502.3 120.9,503.1 121.7,503.1 121.7,503.9 
		123.3,503.9 123.3,504.7 124.1,504.7 124.1,505.5 124.9,505.5 124.9,506.3 125.6,506.3 125.6,507 126.4,507 126.4,507.8 
		238.2,507.8 238.2,243.9 237.4,243 	"/>
	<g id="mobile_2_" class="st10">
		<path id="window_frame_1_" class="st13" d="M182.5,508.9H71.7V198.5c0-1.1,0.9-2,2-2h106.8c1.1,0,2,0.9,2,2V508.9z"/>
		<g>
			<rect id="section_3_thumbnail_1_1_" x="79.6" y="435.1" class="st0" width="93" height="41.5"/>
			<rect id="section_3_thumbnail_text_1_1_" x="79.6" y="483.6" class="st0" width="93" height="6.9"/>
			<rect id="section_3_thumbnail_text_2_1_" x="79.6" y="497.4" class="st0" width="93" height="6.9"/>
		</g>
		<rect id="middle_section_1_" x="71.7" y="342.1" class="st6" width="110.8" height="85.1"/>
		<path id="mountain_1_1_" class="st2" d="M75.7,427.2L94,386.5c1.1-2.5,3.9-2.5,5,0l18.3,40.7H75.7z"/>
		<path id="mountain_2_1_" class="st2" d="M95.5,427.2l36.6-67.9c2.2-4.1,7.7-4.1,9.9,0l36.6,67.9H95.5z"/>
		<rect id="hero_image_4_" x="97.8" y="376.8" class="st5" width="55.4" height="7.1"/>
		<rect id="left_header_link_1_" x="79.6" y="213.6" class="st2" width="59.3" height="6.9"/>
		<rect id="hero_text_1_1_" x="79.6" y="289.7" class="st0" width="47.5" height="6.9"/>
		<rect id="hero_text_2_1_" x="131.1" y="289.7" class="st0" width="11.3" height="6.9"/>
		<rect id="hero_text_3_1_" x="146.9" y="289.7" class="st0" width="26.3" height="6.9"/>
		<rect id="hero_image_1_" x="79.6" y="253.1" class="st2" width="93.3" height="27.7"/>
		<rect id="right_login_link_1_" x="148.9" y="213.6" class="st5" width="23.7" height="6.9"/>
	</g>
</g>
<g id="illustration">
</g>
</svg>
